LG_Sit_Stand_Walk07																		
version=1																		
nRows=99																		
nColumns=19																		
inDegrees=yes																		
endheader																		
time	ground_force2_vx	ground_force2_vy	ground_force2_vz	ground_force2_px	ground_force2_py	ground_force2_pz	ground_torque2_x	ground_torque2_y	ground_torque2_z	ground_force1_vx	ground_force1_vy	ground_force1_vz	ground_force1_px	ground_force1_py	ground_force1_pz	ground_torque1_x	ground_torque1_y	ground_torque1_z
5.175	0	0	0	0.2	0	-0.3	0	0	0	47.969597	681.638123	20.371399	-0.123541	0	0.373813	-1.30E-05	2.415692	-5.00E-06
5.176	0	0	0	0.2	0	-0.3	0	0	0	48.59457	678.917969	20.528101	-0.123788	0	0.373639	-1.10E-05	2.415692	-4.00E-06
5.177	0	0	0	0.2	0	-0.3	0	0	0	48.59457	678.917969	20.528179	-0.123698	0	0.373352	-1.10E-05	2.36682	-4.00E-06
5.178	0	0	0	0.2	0	-0.3	0	0	0	48.358131	678.917969	21.311687	-0.123955	0	0.373184	-1.10E-05	2.313449	-4.00E-06
5.179	0	0	0	0.2	0	-0.3	0	0	0	48.358131	679.277039	21.62517	-0.124305	0	0.373184	-1.80E-05	2.313449	-4.00E-06
5.18	0	0	0	0.2	0	-0.3	0	0	0	48.905251	679.277039	22.016945	-0.124491	0	0.373777	-6.00E-06	2.301685	-4.00E-06
5.181	0	0	0	0.2	0	-0.3	0	0	0	49.055901	679.277039	22.565378	-0.124491	0	0.374163	-1.20E-05	2.301685	-4.00E-06
5.182	0	0	0	0.2	0	-0.3	0	0	0	49.055901	679.782288	22.565378	-0.124468	0	0.374163	-1.20E-05	2.203875	-4.00E-06
5.183	0	0	0	0.2	0	-0.3	0	0	0	49.055901	680.149963	22.565378	-0.124468	0	0.374034	-1.80E-05	2.203875	-4.00E-06
5.184	0	0	0	0.2	0	-0.3	0	0	0	49.448044	680.149963	23.270716	-0.124539	0	0.374034	-2.20E-05	2.336388	-3.00E-06
5.185	0	0	0	0.2	0	-0.3	0	0	0	49.448044	678.77478	23.976013	-0.124564	0	0.374584	-2.20E-05	2.336388	-3.00E-06
5.186	0	0	0	0.2	0	-0.3	0	0	0	49.916595	678.77478	24.446196	-0.125076	0	0.374864	-1.50E-05	2.385358	-6.00E-06
5.187	0	0	0	0.2	0	-0.3	0	0	0	49.910095	678.77478	24.132751	-0.125076	0	0.375186	-1.30E-05	2.322346	-6.00E-06
5.188	0	0	0	0.2	0	-0.3	0	0	0	49.910095	673.620728	24.132751	-0.125076	0	0.37498	-1.30E-05	2.250759	-6.00E-06
5.189	0	0	0	0.2	0	-0.3	0	0	0	49.600136	673.620728	24.132751	-0.1253	0	0.374995	-1.30E-05	2.245149	-6.00E-06
5.19	0	0	0	0.2	0	-0.3	0	0	0	49.600136	673.810486	24.367907	-0.12538	0	0.374995	-1.20E-05	2.245149	-6.00E-06
5.191	0	0	0	0.2	0	-0.3	0	0	0	49.909374	673.810486	24.446236	-0.125565	0	0.375245	-1.20E-05	2.245149	-7.00E-06
5.192	0	0	0	0.2	0	-0.3	0	0	0	50.143654	673.476807	24.681469	-0.125577	0	0.3753	-8.00E-06	2.312534	-7.00E-06
5.193	0	0	0	0.2	0	-0.3	0	0	0	50.532177	670.201599	25.465057	-0.125577	0	0.375972	-1.60E-05	2.329594	-3.00E-06
5.194	0	0	0	0.2	0	-0.3	0	0	0	50.532177	669.726074	25.465057	-0.125844	0	0.375972	-1.00E-05	2.329594	-3.00E-06
5.195	0	0	0	0.2	0	-0.3	0	0	0	49.667885	670.201599	25.465057	-0.12618	0	0.376103	-1.00E-05	2.29857	-6.00E-06
5.196	0	0	0	0.2	0	-0.3	0	0	0	49.667885	670.566162	26.248684	-0.126269	0	0.375813	-1.00E-05	2.29857	-6.00E-06
5.197	0	0	0	0.2	0	-0.3	0	0	0	48.967224	670.566162	26.248684	-0.126269	0	0.376103	-1.00E-05	2.29857	-7.00E-06
5.198	0	0	0	0.2	0	-0.3	0	0	0	50.137875	669.893066	26.092062	-0.126364	0	0.375813	-2.50E-05	2.229665	-7.00E-06
5.199	0	0	0	0.2	0	-0.3	0	0	0	50.057858	669.893066	26.092062	-0.12628	0	0.37567	-2.70E-05	2.225686	-7.00E-06
5.2	0	0	0	0.2	0	-0.3	0	0	0	50.057858	669.893066	26.170513	-0.126364	0	0.37567	-2.70E-05	2.188017	-8.00E-06
5.201	0	0	0	0.2	0	-0.3	0	0	0	49.589306	666.470825	26.327215	-0.126502	0	0.375731	-7.00E-06	2.131764	-1.00E-06
5.202	0	0	0	0.2	0	-0.3	0	0	0	49.119316	666.470825	26.327215	-0.126505	0	0.375784	-7.00E-06	2.108631	-7.00E-06
5.203	0	0	0	0.2	0	-0.3	0	0	0	48.882153	672.84259	26.327215	-0.127064	0	0.375829	-6.00E-06	2.076753	-3.00E-06
5.204	0	0	0	0.2	0	-0.3	0	0	0	48.882153	672.84259	26.405666	-0.127064	0	0.375884	-6.00E-06	2.068916	-6.00E-06
5.205	0	0	0	0.2	0	-0.3	0	0	0	49.74934	666.122559	27.972639	-0.126793	0	0.376699	-2.00E-06	2.068916	-6.00E-06
5.206	0	0	0	0.2	0	-0.3	0	0	0	49.74934	666.122559	27.972639	-0.126793	0	0.376699	-2.00E-06	2.04074	-7.00E-06
5.207	0	0	0	0.2	0	-0.3	0	0	0	49.737076	664.422668	28.599483	-0.127162	0	0.376155	-2.00E-06	2.04074	-7.00E-06
5.208	0	0	0	0.2	0	-0.3	0	0	0	49.660664	664.955383	28.677977	-0.127196	0	0.375989	-9.00E-06	2.033656	-5.00E-06
5.209	0	0	0	0.2	0	-0.3	0	0	0	49.737076	664.955383	28.677977	-0.12751	0	0.376155	-9.00E-06	2.033656	-4.00E-06
5.21	0	0	0	0.2	0	-0.3	0	0	0	50.052082	666.317688	28.677977	-0.12751	0	0.376474	-9.00E-06	2.081615	-2.00E-06
5.211	0	0	0	0.2	0	-0.3	0	0	0	50.052082	666.317688	28.834757	-0.127425	0	0.376483	-1.40E-05	2.081615	-2.00E-06
5.212	0	0	0	0.2	0	-0.3	0	0	0	50.285641	663.574036	28.913048	-0.127425	0	0.376903	-1.40E-05	2.197773	-2.00E-06
5.213	0	0	0	0.2	0	-0.3	0	0	0	50.285641	660.65564	29.853376	-0.127493	0	0.377385	-7.00E-06	2.077757	-7.00E-06
5.214	0	0	0	0.2	0	-0.3	0	0	0	50.285641	660.65564	30.244787	-0.127788	0	0.377385	-4.00E-06	2.077757	-7.00E-06
5.215	0	0	0	0.2	0	-0.3	0	0	0	49.972073	662.737793	30.244787	-0.127934	0	0.37673	2.00E-06	2.077757	-7.00E-06
5.216	0	0	0	0.2	0	-0.3	0	0	0	49.972073	664.957642	30.244787	-0.127934	0	0.37673	2.00E-06	2.136664	-5.00E-06
5.217	0	0	0	0.2	0	-0.3	0	0	0	49.972073	664.957642	30.558754	-0.1277	0	0.37707	-1.00E-05	2.136664	-5.00E-06
5.218	0	0	0	0.2	0	-0.3	0	0	0	49.655613	663.238892	30.558754	-0.1277	0	0.37707	-1.00E-05	1.974071	-7.00E-06
5.219	0	0	0	0.2	0	-0.3	0	0	0	49.655613	661.698608	30.715052	-0.12808	0	0.37707	-1.00E-05	1.974071	-8.00E-06
5.22	0	0	0	0.2	0	-0.3	0	0	0	49.733463	661.698608	31.185436	-0.128321	0	0.376807	-2.00E-06	2.024924	-8.00E-06
5.221	0	0	0	0.2	0	-0.3	0	0	0	49.889168	661.698608	31.263767	-0.128341	0	0.377523	-5.00E-06	2.025921	-1.00E-06
5.222	0	0	0	0.2	0	-0.3	0	0	0	49.889168	662.241333	31.185436	-0.128341	0	0.376874	-5.00E-06	2.024924	-1.00E-06
5.223	0	0	0	0.2	0	-0.3	0	0	0	49.107052	666.360901	30.793745	-0.128171	0	0.376874	-6.00E-06	1.942228	0.00E+00
5.224	0	0	0	0.2	0	-0.3	0	0	0	49.029202	666.360901	30.793745	-0.128171	0	0.376874	-1.20E-05	1.942228	-2.00E-06
5.225	0	0	0	0.2	0	-0.3	0	0	0	49.029202	658.101318	32.752529	-0.128461	0	0.376826	-1.20E-05	1.868768	-1.00E-06
5.226	0	0	0	0.2	0	-0.3	0	0	0	50.271927	658.101318	32.752529	-0.128461	0	0.378215	-1.40E-05	2.033371	-2.00E-06
5.227	0	0	0	0.2	0	-0.3	0	0	0	50.271927	660.358582	32.752655	-0.128553	0	0.377526	-1.40E-05	2.013476	-4.00E-06
5.228	0	0	0	0.2	0	-0.3	0	0	0	50.27914	660.699585	33.144424	-0.128615	0	0.377631	-1.40E-05	2.114496	-4.00E-06
5.229	0	0	0	0.2	0	-0.3	0	0	0	50.041264	660.358582	33.692902	-0.128657	0	0.377605	-1.10E-05	2.013476	-4.00E-06
5.23	0	0	0	0.2	0	-0.3	0	0	0	50.041264	658.815247	34.006344	-0.128699	0	0.377631	-1.10E-05	1.974709	-4.00E-06
5.231	0	0	0	0.2	0	-0.3	0	0	0	50.041264	656.408386	34.006382	-0.128807	0	0.377875	-1.10E-05	1.974709	-4.00E-06
5.232	0	0	0	0.2	0	-0.3	0	0	0	50.041264	656.408386	34.554821	-0.128975	0	0.377901	-1.70E-05	2.017408	-2.00E-06
5.233	0	0	0	0.2	0	-0.3	0	0	0	51.37122	654.704224	35.260033	-0.128975	0	0.378233	-1.80E-05	2.030373	-2.00E-06
5.234	0	0	0	0.2	0	-0.3	0	0	0	51.37122	656.401794	35.573437	-0.128853	0	0.378262	-1.70E-05	2.085422	0.00E+00
5.235	0	0	0	0.2	0	-0.3	0	0	0	50.431957	656.401794	35.573437	-0.128853	0	0.378262	-1.70E-05	2.030373	-6.00E-06
5.236	0	0	0	0.2	0	-0.3	0	0	0	49.802654	656.401794	35.573437	-0.12896	0	0.378725	-1.10E-05	1.962878	-6.00E-06
5.237	0	0	0	0.2	0	-0.3	0	0	0	49.801937	655.719055	35.965408	-0.12896	0	0.378833	-1.10E-05	1.962878	-8.00E-06
5.238	0	0	0	0.2	0	-0.3	0	0	0	49.801937	655.719055	36.513721	-0.12896	0	0.378833	-9.00E-06	2.036663	-8.00E-06
5.239	0	0	0	0.2	0	-0.3	0	0	0	50.038372	657.638794	36.905457	-0.129072	0	0.378945	-1.70E-05	2.036663	-7.00E-06
5.24	0	0	0	0.2	0	-0.3	0	0	0	50.038372	657.638794	36.905579	-0.129198	0	0.378745	-1.40E-05	1.992308	-5.00E-06
5.241	0	0	0	0.2	0	-0.3	0	0	0	49.882671	655.399658	36.983868	-0.129075	0	0.378745	-2.30E-05	1.992308	-3.00E-06
5.242	0	0	0	0.2	0	-0.3	0	0	0	49.489811	655.399658	36.983868	-0.129198	0	0.378262	-1.40E-05	1.927275	-3.00E-06
5.243	0	0	0	0.2	0	-0.3	0	0	0	48.628399	658.328125	36.905457	-0.129268	0	0.378236	-1.70E-05	1.766975	-3.00E-06
5.244	0	0	0	0.2	0	-0.3	0	0	0	48.628399	658.328125	36.905457	-0.129426	0	0.378262	-1.20E-05	1.766975	-7.00E-06
5.245	0	0	0	0.2	0	-0.3	0	0	0	48.941967	657.106506	39.177685	-0.129426	0	0.378612	-1.20E-05	1.836903	-1.00E-05
5.246	0	0	0	0.2	0	-0.3	0	0	0	49.643349	654.384888	39.256138	-0.129331	0	0.379229	-1.20E-05	1.836903	-1.00E-05
5.247	0	0	0	0.2	0	-0.3	0	0	0	49.643349	654.366272	39.256138	-0.129331	0	0.379229	-2.10E-05	1.816692	-7.00E-06
5.248	0	0	0	0.2	0	-0.3	0	0	0	48.781933	652.48822	39.882904	-0.12956	0	0.379344	-2.10E-05	1.758371	1.00E-06
5.249	0	0	0	0.2	0	-0.3	0	0	0	48.781933	652.309204	39.882942	-0.129581	0	0.379003	-1.50E-05	1.758371	-4.00E-06
5.25	0	0	0	0.2	0	-0.3	0	0	0	48.9398	652.309204	40.039684	-0.129581	0	0.379003	-1.10E-05	1.796711	-2.00E-06
5.251	0	0	0	0.2	0	-0.3	0	0	0	49.016212	652.309204	40.196308	-0.129581	0	0.379003	-1.10E-05	1.796711	-4.00E-06
5.252	0	0	0	0.2	0	-0.3	0	0	0	49.093342	651.295898	40.588161	-0.129569	0	0.379598	-1.20E-05	1.787299	-2.00E-06
5.253	0	0	0	0.2	0	-0.3	0	0	0	49.093342	648.863892	41.68499	-0.12972	0	0.380267	-1.20E-05	1.760825	-1.00E-06
5.254	0	0	0	0.2	0	-0.3	0	0	0	48.231205	648.863892	41.68499	-0.12972	0	0.380267	-1.20E-05	1.727153	-1.00E-06
5.255	0	0	0	0.2	0	-0.3	0	0	0	47.915474	651.813965	41.606659	-0.130099	0	0.379341	-1.20E-05	1.690528	-1.00E-06
5.256	0	0	0	0.2	0	-0.3	0	0	0	47.915474	651.813965	41.606659	-0.130099	0	0.379341	-1.20E-05	1.688169	-5.00E-06
5.257	0	0	0	0.2	0	-0.3	0	0	0	47.915474	652.496338	41.841812	-0.130085	0	0.379407	-1.10E-05	1.629758	-6.00E-06
5.258	0	0	0	0.2	0	-0.3	0	0	0	47.997654	652.496338	42.155334	-0.129886	0	0.379828	-4.00E-06	1.688169	-6.00E-06
5.259	0	0	0	0.2	0	-0.3	0	0	0	47.76049	652.496338	42.390327	-0.12972	0	0.380157	-1.10E-05	1.629758	-6.00E-06
5.26	0	0	0	0.2	0	-0.3	0	0	0	47.759052	648.704285	42.546906	-0.129647	0	0.380157	-9.00E-06	1.608108	-6.00E-06
5.261	0	0	0	0.2	0	-0.3	0	0	0	47.446922	648.704285	42.547108	-0.12972	0	0.380131	-1.30E-05	1.597192	-8.00E-06
5.262	0	0	0	0.2	0	-0.3	0	0	0	47.290501	650.262573	42.782101	-0.129606	0	0.37998	-1.60E-05	1.597192	-8.00E-06
5.263	0	0	0	0.2	0	-0.3	0	0	0	46.901966	654.042236	42.860512	-0.129848	0	0.380131	-2.50E-05	1.597192	-2.00E-06
5.264	0	0	0	0.2	0	-0.3	0	0	0	46.901966	654.042236	42.860512	-0.129606	0	0.380284	-1.60E-05	1.620398	-2.00E-06
5.265	0	0	0	0.2	0	-0.3	0	0	0	47.599018	647.317139	43.957256	-0.129731	0	0.381448	-7.00E-06	1.457296	-1.00E-06
5.266	0	0	0	0.2	0	-0.3	0	0	0	47.599018	646.13916	44.114082	-0.129731	0	0.381448	-6.00E-06	1.43267	-1.00E-06
5.267	0	0	0	0.2	0	-0.3	0	0	0	46.505497	646.13916	44.114082	-0.129769	0	0.380281	-7.00E-06	1.43267	0.00E+00
5.268	0	0	0	0.2	0	-0.3	0	0	0	46.429089	649.919189	44.897587	-0.129855	0	0.380281	-1.80E-05	1.465044	-1.00E-06
5.269	0	0	0	0.2	0	-0.3	0	0	0	46.272663	649.919189	45.054329	-0.129855	0	0.380601	-1.80E-05	1.465044	-4.00E-06
5.27	0	0	0	0.2	0	-0.3	0	0	0	45.959095	648.194641	45.054329	-0.129855	0	0.381282	-8.00E-06	1.491073	-4.00E-06
5.271	0	0	0	0.2	0	-0.3	0	0	0	45.881245	648.194641	45.054329	-0.129813	0	0.381175	-8.00E-06	1.463179	0.00E+00
5.272	0	0	0	0.2	0	-0.3	0	0	0	45.881245	646.813416	45.602882	-0.129796	0	0.381404	-1.40E-05	1.463179	0
5.273	0	0	0	0.2	0	-0.3	0	0	0	45.724823	644.075134	46.386349	-0.129813	0	0.381192	-1.40E-05	1.463179	0
